<?xml version="1.0" encoding="utf-8"?>
<svg width="44px" height="44px" viewBox="0 0 44 44" version="1.1" xmlns:xlink="http://www.w3.org/1999/xlink" xmlns="http://www.w3.org/2000/svg">
  <defs>
    <path d="M22 0C34.1519 0 44 9.84808 44 22L44 22C44 34.1519 34.1519 44 22 44L22 44C9.84808 44 0 34.1519 0 22L0 22C0 9.84808 9.84808 0 22 0Z" id="path_1" />
    <clipPath id="clip_1">
      <use xlink:href="#path_1" clip-rule="evenodd" fill-rule="evenodd" />
    </clipPath>
  </defs>
  <g id="[Element]-Logo--Hidden" fill-opacity="1">
    <path d="M2423 -276L2423 -276L2423 -232L2379 -232L2379 -276L2423 -276Z" id="[Element]-Logo--Hidden" fill="none" stroke="none" />
    <path d="M22 0C34.1519 0 44 9.84808 44 22L44 22C44 34.1519 34.1519 44 22 44L22 44C9.84808 44 0 34.1519 0 22L0 22C0 9.84808 9.84808 0 22 0Z" id="bg" fill="#000000" stroke="none" />
    <g clip-path="url(#clip_1)">
      <path d="M0 0L44 0L44 44L0 44L0 0Z" id="Mask" fill="#0052FF" stroke="none" />
      <path d="M12.7188 9.625L19.9375 9.625L19.9375 13.75L12.7188 13.75L12.7188 9.625Z" id="Rectangle" fill="#FFFFFF" fill-rule="evenodd" stroke="none" />
      <g id="P" transform="translate(15.125 11.6875)">
        <path d="M0 20.625L0 0L8.87226 0C10.3978 0 11.7327 0.302124 12.8768 0.906372C14.021 1.51062 14.9109 2.35992 15.5465 3.45428C16.1822 4.54865 16.5 5.82764 16.5 7.29126C16.5 8.76831 16.1738 10.0473 15.5214 11.1282C14.8691 12.2092 13.9557 13.0417 12.7815 13.6258C11.6072 14.2099 10.2372 14.502 8.67153 14.502L3.37226 14.502L3.37226 10.1514L7.54745 10.1514C8.20316 10.1514 8.76353 10.0356 9.22856 9.80392C9.69358 9.5723 10.0516 9.24164 10.3025 8.81195C10.5534 8.38226 10.6788 7.87537 10.6788 7.29126C10.6788 6.70044 10.5534 6.19522 10.3025 5.7756C10.0516 5.35599 9.69358 5.03372 9.22856 4.80881C8.76353 4.58389 8.20316 4.47144 7.54745 4.47144L5.58029 4.47144L5.58029 20.625L0 20.625Z" id="Path" fill="#FFFFFF" stroke="none" />
      </g>
    </g>
  </g>
</svg>